<svg xmlns="http://www.w3.org/2000/svg" width="10.55" height="22.623" viewBox="0 0 10.55 22.623"><defs><style>.a{fill:#171717;}</style></defs><path class="a" d="M173.443,225.73v-4.548h2.218c0-.553-.022-1.05.005-1.545a10.794,10.794,0,0,1,.182-1.928,4.076,4.076,0,0,1,4.07-3.308c1.28-.071,2.568-.013,3.852-.011a.527.527,0,0,1,.133.044v3.839h-2.236c-.96,0-1.265.3-1.268,1.256,0,.487,0,.974,0,1.46a1.238,1.238,0,0,0,.03.168h3.558l-.415,4.55h-3.34v11.282H175.7V225.73Z" transform="translate(-173.443 -214.365)"/></svg>