<svg xmlns="http://www.w3.org/2000/svg" width="22.768" height="22.747" viewBox="0 0 22.768 22.747"><defs><style>.a{fill:#171717;}</style></defs><path class="a" d="M196.6,300.354c1.257,0,2.515-.017,3.772.005a11.21,11.21,0,0,1,3.092.367,5.853,5.853,0,0,1,4.256,4.666,14.626,14.626,0,0,1,.24,3.059q.021,3.268,0,6.537a15.889,15.889,0,0,1-.234,3.043,5.906,5.906,0,0,1-4.8,4.814,11.238,11.238,0,0,1-1.946.209c-1.772.038-3.546.039-5.319.041q-1.764,0-3.528-.036a8.352,8.352,0,0,1-3.151-.6,5.782,5.782,0,0,1-3.417-3.949,8.993,8.993,0,0,1-.314-2.349c-.024-2.289-.049-4.577-.052-6.866,0-.926.03-1.854.095-2.778a6.786,6.786,0,0,1,1.08-3.4,5.951,5.951,0,0,1,3.843-2.527,13.1,13.1,0,0,1,2.572-.236C194.066,300.34,195.335,300.354,196.6,300.354Zm-9.38,11.369h.016c0,.382,0,.765,0,1.147a38.793,38.793,0,0,0,.143,4.323,4.441,4.441,0,0,0,.682,1.982,4.031,4.031,0,0,0,3.107,1.76,19.442,19.442,0,0,0,2.028.112c2.468.009,4.937.012,7.4-.015a10.425,10.425,0,0,0,2-.207,3.764,3.764,0,0,0,3.047-2.862,9.346,9.346,0,0,0,.261-2.357c.027-1.489.034-2.978.038-4.467a45.514,45.514,0,0,0-.14-4.844,4.5,4.5,0,0,0-.61-1.9,3.965,3.965,0,0,0-3.125-1.877,20.437,20.437,0,0,0-2.27-.133q-3.7-.011-7.405.034a9.417,9.417,0,0,0-1.858.207,3.76,3.76,0,0,0-2.976,2.746,8.394,8.394,0,0,0-.284,2.284C187.252,309.011,187.242,310.368,187.224,311.723Z" transform="translate(-185.207 -300.348)"/><path class="a" d="M216.895,326.148a5.846,5.846,0,1,1-5.851,5.763A5.843,5.843,0,0,1,216.895,326.148Zm-3.814,5.84a3.808,3.808,0,1,0,3.82-3.807A3.809,3.809,0,0,0,213.081,331.988Z" transform="translate(-205.506 -320.618)"/><path class="a" d="M261.644,321.439a1.365,1.365,0,1,1,1.369-1.368A1.374,1.374,0,0,1,261.644,321.439Z" transform="translate(-244.186 -314.774)"/></svg>