<svg xmlns="http://www.w3.org/2000/svg" width="52" height="52" viewBox="0 0 52 52"><defs><style>.a{fill:#c41967;}.b{fill:#fff;}</style></defs><g transform="translate(-511 -864)"><circle class="a" cx="26" cy="26" r="26" transform="translate(511 864)"/><g transform="translate(261.667 817.565)"><g transform="translate(262 60)"><path class="b" d="M280.682,61.045a2.211,2.211,0,0,1,2.208,2.208V78.682a2.211,2.211,0,0,1-2.208,2.208H265.253a2.211,2.211,0,0,1-2.208-2.208V63.253a2.211,2.211,0,0,1,2.208-2.208h15.429m0-1.045H265.253A3.253,3.253,0,0,0,262,63.253V78.682a3.253,3.253,0,0,0,3.253,3.253h15.429a3.253,3.253,0,0,0,3.253-3.253V63.253A3.253,3.253,0,0,0,280.682,60Z" transform="translate(-262 -60)"/></g><g transform="translate(266.107 61.05)"><path class="b" d="M293.688,87.071a3.851,3.851,0,0,1-.45-.027L277.727,84.9l.143-1.035,15.5,2.142a2.733,2.733,0,0,0,3.025-2.39L298.223,68.3a2.734,2.734,0,0,0-2.389-3.035l-1.4-.208.154-1.033,1.385.207a3.776,3.776,0,0,1,3.287,4.194l-1.826,15.321A3.781,3.781,0,0,1,293.688,87.071Z" transform="translate(-277.727 -64.022)"/></g><g transform="translate(275.709 63.525)"><path class="b" d="M316.85,78.2a2.35,2.35,0,1,1,2.35-2.35A2.353,2.353,0,0,1,316.85,78.2Zm0-3.656a1.306,1.306,0,1,0,1.306,1.306A1.307,1.307,0,0,0,316.85,74.545Z" transform="translate(-314.5 -73.5)"/></g><g transform="translate(262 67.051)"><path class="b" d="M283.413,97.968a.521.521,0,0,1-.4-.187l-4.2-5.023L275.9,95.968a.543.543,0,0,1-.405.171.522.522,0,0,1-.392-.2l-5.964-7.575L262.932,96.2a.522.522,0,1,1-.818-.649l6.621-8.356a.522.522,0,0,1,.409-.2h0a.522.522,0,0,1,.409.2l5.991,7.609,2.9-3.2a.505.505,0,0,1,.4-.172.522.522,0,0,1,.39.188l4.582,5.484a.522.522,0,0,1-.4.857Z" transform="translate(-262 -87)"/></g></g></g></svg>